<svg width="1440pt" height="1080pt" version="1.1" viewBox="0 0 508 381" xmlns="http://www.w3.org/2000/svg">
	<g>
		<rect x="339.76" y="194.61" width="118.62" height="106.81" fill="#49ff9d" opacity=".997" stroke-linecap="round" stroke-linejoin="round" stroke-width=".52642" style="paint-order:markers fill stroke"/>
		<rect x="339.76" y="218.95" width="118.62" height="6.025" fill="#00de67" style="paint-order:markers fill stroke"/>
	</g>
	<g>
		<rect transform="matrix(1 0 .74779 .66393 0 0)" x="92.712" y="185.17" width="155.08" height="145.2" fill="#b9ffda" opacity=".997" stroke-linecap="round" stroke-linejoin="round" stroke-width="1.694" style="paint-order:markers fill stroke"/>
	</g>
	<g>
		<rect x="355.63" y="230.93" width="86.873" height="70.495" fill="#d0ff3d" opacity=".997" stroke-linecap="round" stroke-linejoin="round" stroke-width=".36598" style="paint-order:markers fill stroke"/>
		<rect x="432.58" y="230.93" width="9.9251" height="70.495" fill="#00de67" style="paint-order:markers fill stroke"/>
	</g>
	<g>
		<rect x="183.18" y="160.44" width="156.58" height="140.99" fill="#0f7" stroke-linecap="round" stroke-linejoin="round" stroke-width=".69487" style="paint-order:markers fill stroke"/>
		<rect x="184.85" y="160.44" width="154.91" height="31.089" fill="#00de67" style="paint-order:markers fill stroke"/>
	</g>
	<g>
		<rect x="278.33" y="230.93" width="35.248" height="70.495" fill="#d0ff3d" opacity=".997" stroke-linecap="round" stroke-linejoin="round" stroke-width=".65541" style="paint-order:markers fill stroke"/>
		<rect x="209.35" y="230.93" width="56.782" height="33.999" fill="#d0ff3d" opacity=".997" stroke-linecap="round" stroke-linejoin="round" stroke-width=".5777" style="paint-order:markers fill stroke"/>
		<rect x="303.66" y="230.93" width="9.9256" height="70.495" fill="#00de67" style="paint-order:markers fill stroke"/>
		<rect x="256.21" y="230.93" width="9.9251" height="33.999" fill="#00de67" style="paint-order:markers fill stroke"/>
	</g>
	<rect transform="matrix(-1 0 -.62869 .77765 0 0)" x="-254.04" y="102.33" width="99.581" height="122.41" fill="#7bdda9" opacity=".997" stroke-linecap="round" stroke-linejoin="round" stroke-width="1.2464" style="paint-order:markers fill stroke"/>
	<g>
		<path d="m49.042 160.11 52.781-70.478 83.026 70.478z" fill="#00de67"/>
	</g>
	<g>
		<rect x="49.042" y="160.11" width="135.81" height="141.32" fill="#00de67" opacity=".997" stroke-linecap="round" stroke-linejoin="round" stroke-width=".64789" style="paint-order:markers fill stroke"/>
	</g>
	<g>
		<rect transform="matrix(1 0 .75402 .65685 0 0)" x="-1.224" y="121.15" width="158.06" height="146.77" fill="#8dffc3" opacity=".997" stroke-linecap="round" stroke-linejoin="round" stroke-width="1.7194" style="paint-order:markers fill stroke"/>
	</g>
	<g stroke-linecap="round" stroke-linejoin="round">
		<rect transform="matrix(-1 0 .45348 .89127 0 0)" x="-226.58" y="124.8" width="40.789" height="61.488" fill="#7bdda9" stroke-width=".56536" style="paint-order:markers fill stroke"/>
		<rect transform="matrix(1 0 -.44686 .8946 0 0)" x="298.31" y="124.34" width="40.421" height="61.836" fill="#84edb5" stroke-width=".56439" style="paint-order:markers fill stroke"/>
	</g>
</svg>
