<svg width="1440" height="1080" version="1.1" viewBox="0 0 381 285.75" xmlns="http://www.w3.org/2000/svg">
	<rect x="-19.039" y="-21.763" width="419.08" height="329.28" fill="#dbdbdb" opacity=".99565" style="paint-order:markers fill stroke"/>
	<g transform="matrix(.87449 0 0 .87449 23.909 -9.4352)" opacity=".999">
		<rect x="36.435" y="159.12" width="199.63" height="19.748" fill="#c3c3c3" opacity=".99565" style="paint-order:markers fill stroke"/>
		<rect transform="matrix(-1 0 -.55333 .83296 0 0)" x="-341.77" y="92.985" width="199.63" height="98.044" fill="#b8b8b8" opacity=".99565" stroke-linecap="round" stroke-linejoin="round" stroke-width=".55362" style="paint-order:markers fill stroke"/>
	</g>
	<g transform="matrix(.87449 0 0 .87449 23.909 -9.4352)">
		<rect x="58.169" y="159.11" width="108.5" height="126.64" fill="#c3c3c3" opacity=".99565" stroke-linecap="round" stroke-linejoin="round" stroke-width=".46386" style="paint-order:markers fill stroke"/>
	</g>
	<g transform="matrix(.87449 0 0 .87449 23.909 -9.4352)">
		<rect x="166.67" y="159.11" width="156.16" height="126.64" fill="#cfcfcf" opacity=".99565" stroke-linecap="round" stroke-linejoin="round" stroke-width=".55649" style="paint-order:markers fill stroke"/>
		<rect x="166.67" y="178.86" width="156.16" height="11.536" fill="#c3c3c3" opacity=".99565" style="paint-order:markers fill stroke"/>
	</g>
	<g transform="matrix(.87449 0 0 .87449 23.909 -9.4352)">
		<rect x="185.76" y="199.9" width="46.289" height="39.496" fill="#c3c3c3" opacity=".99565" stroke-linecap="round" stroke-linejoin="round" stroke-width=".96382" style="paint-order:markers fill stroke"/>
		<rect x="257.45" y="199.9" width="46.289" height="39.496" fill="#c3c3c3" opacity=".99565" stroke-linecap="round" stroke-linejoin="round" stroke-width=".96382" style="paint-order:markers fill stroke"/>
		<rect x="225.47" y="199.9" width="6.5774" height="39.496" fill="#aeaeae" opacity=".99565" style="paint-order:markers fill stroke"/>
		<rect x="297.16" y="199.9" width="6.5774" height="39.496" fill="#aeaeae" opacity=".99565" style="paint-order:markers fill stroke"/>
	</g>
	<g transform="matrix(.87449 0 0 .87449 23.909 -9.4352)">
		<rect x="89.274" y="206.76" width="46.289" height="78.992" fill="#aeaeae" opacity=".99565" stroke-linecap="round" stroke-linejoin="round" stroke-width=".93393" style="paint-order:markers fill stroke"/>
	</g>
	<g transform="matrix(.87449 0 0 .87449 23.909 -9.4352)">
		<path transform="matrix(1.1735 -.011931 .0081824 1.0131 -53.542 47.844)" d="m141.6 31.429 45.271 80.613-92.448-1.1006z" fill="#c3c3c3" opacity=".99565" style="paint-order:markers fill stroke"/>
	</g>
	<g transform="matrix(.87449 0 0 .87449 23.909 -9.4352)">
		<rect transform="matrix(1 0 .55336 .83294 0 0)" x="39.23" y="92.987" width="199.63" height="98.038" fill="#e9e9e9" opacity=".99565" stroke-linecap="round" stroke-linejoin="round" stroke-width=".5536" style="paint-order:markers fill stroke"/>
		<rect x="144.94" y="159.11" width="199.63" height="19.748" fill="#d0d0d0" opacity=".99565" style="paint-order:markers fill stroke"/>
	</g>
</svg>
