<svg width="1440" height="1080" version="1.1" viewBox="0 0 381 285.75" xmlns="http://www.w3.org/2000/svg">
	<g>
		<path d="m192.13 15.567 1.7746-4.6858h6.3485v19.966h-11.833l0.7846-13.942z" fill="#d1944f" style="paint-order:markers fill stroke"/>
		<path d="m180.75 10.881h8.5273l3.7655 10.117 3.7768-3.5186 3.4279-6.5981v266.16h-19.497z" fill="#f7b55d" style="paint-order:markers fill stroke"/>
		<rect x="179.3" y="10.881" width="7.895" height="266.16" fill="#c48b4a" style="paint-order:markers fill stroke"/>
		<path d="m187.2 106.65 5.7103 8e-3 2.5207 0.62483 2.5294-0.21271 2.2961-0.40222-0.022 16.349-13.057-0.0176z" fill="#e3a156" style="paint-order:markers fill stroke"/>
		<path d="m107.9 39.863 151.54-16.945 5.2734 46.766 0.43342 3.8401 4.5493 5.4459-2.7652 8.8759 5.1147 6.3519 4.5093 3.89-7.3032 11.373-151.64 17.24-0.28854-2.5625 2.4922-6.7351-5.3982-5.894 1.0652-13.895-6.52-12.58 3.3743-5.5142 0.32076-20.722-7.5173-9.0616z" fill="#c48b4a" style="paint-order:markers fill stroke"/>
		<path d="m116.13 38.943 143.42-15.954 5.3494 5.7141-2.9371 17.03-4.3474 0.90304-7.1899 2.8222-10.1 1.719 7.3852 1.7976 14.853-0.56172 6.8606 8.809-4.8558 7.9885-10.796 4.5097 11.38-0.19578 4.5493 5.4459-2.7652 8.8759-7.6739-1.175 5.5072 2.9022 2.3098 2.4086 4.9715 2.2161 3.0854 3.8936-6.0503 9.0588-143.53 16.05 2.1634-6.3317 3.9562-1.7984 4.2356-0.58959 6.6535-0.99755 3.6022-2.6831-14.606 0.63195-5.1602 1.311-3.657-2.1636 0.93893-11.23 8.6447-2.2068 4.6969-1.8416-10.228 0.80138-4.4172-2.3002-4.9327-9.716 1.5797-2.2633 9.8745-1.7088-4.7186-2.1568-3.3678-3.5496-0.0774-14.032 7.4248-4.4597 9.7569-0.31298-7.851-1.3193-10.496 2.1377-5.9554-7.6318z" fill="#f7b55d" style="paint-order:markers fill stroke"/>
		<path d="m143.16 78.89 9.601-0.7965 19.104-5.166 18.287 0.18092-70.251 15.836-2.4663-4.858 1.5797-2.2633 9.8745-1.7088z" fill="#ffd9a8" stroke-linecap="square" stroke-width=".23008" style="paint-order:markers fill stroke"/>
		<path d="m172.26 93.36 47.59-4.1502 11.721 2.0907 9.488 1.0744-117.85 12.589 0.46945-5.615 8.6447-2.2068 18.859-0.70084z" fill="#ffce8c" stroke-linecap="square" stroke-width=".23008" style="paint-order:markers fill stroke"/>
	</g>
	<text x="176.51387" y="101.79366" font-family="Manrope" font-size="10.583px" stroke-width=".26458" style="line-height:1.25" xml:space="preserve"><tspan x="176.51387" y="101.79366" stroke-width=".26458"/></text>
	<g>
		<g stroke-linecap="square" stroke-width=".23008">
			<path d="m146.16 110.8 125.89-16.602 3.0854 3.8936-6.0503 9.0588-143.53 16.05 2.1634-6.3317 3.9562-1.7984 10.889-1.5871z" fill="#e4a756" style="paint-order:markers fill stroke"/>
			<path d="m148.83 86.116 118.32-27.805 2.2675 2.9115-4.8558 7.9885-10.796 4.5097-116.75 21.581-10.228 0.80138-4.4172-2.3002 4.1792-3.2002z" fill="#e8aa57" style="paint-order:markers fill stroke"/>
			<path d="m202.46 50.577 37.857 0.60026 7.3852 1.7976 14.853-0.56172 1.4002 1.7979-35.809 3.2318-48.273-4.7835-16.336 3.4784-25.63-0.53462-7.851-1.3193-10.496 2.1377-3.6001-4.6135 5.9853-1.8871 31.717 0.85452z" fill="#e8aa58" style="paint-order:markers fill stroke"/>
		</g>
		<g transform="rotate(-30.953 35.503 24.318)" fill="#fff" stroke-width=".85441" aria-label="e">
			<path transform="matrix(.24062 .11002 -.11002 .24062 0 0)" d="m574.98 200.03c-0.86644 0.27147-2.2172 4.4522-4.0508 12.541 0.11216 0.84825 0.57307 1.2184 1.3828 1.1113-0.0969-0.73258 1.2512-4.9334 4.043-12.6-0.0918-0.69405-0.55-1.0441-1.375-1.0527zm6.8418 0c-0.71198 0.22308-1.7698 3.235-3.1348 8.7363l-1.9824-0.13867c-0.38561 0.051-1.0492 1.4154-1.9902 4.0898-2.8094 11.984-5.3034 20.12-7.4824 24.41l-1.2715 0.16797c-0.15294-1.1567 0.21711-3.109 1.1094-5.8555l-0.33008-2.4863-0.57812 0.0762c-0.13099 4.6467-1.0838 7.0878-2.8574 7.3223 0.056 0.42405 0.2965 0.60873 0.7207 0.55274-0.66994 1.4617-0.95633 2.5585-0.85937 3.291l-1.2988-0.47656c0.11724 0.88681-0.56713 3.7252-2.0527 8.5117-3.2844 6.9075-4.8258 11.112-4.627 12.615-3.3745 4.8271-7.0452 14.174-11.002 27.922-2.4022-6.627-4.8641-12.538-7.3965-17.639-4.6313-9.5094-7.3524-14.211-8.1621-14.104-5.5299-10.371-10.606-18.352-15.229-23.939-3.01-6.7422-5.3259-10.005-6.9453-9.791l-1.2715 0.16797 0.96484 2.4023c20.693 32.18 31.317 50.371 31.873 54.574l-1.2148 0.16016c-4.2967-9.946-7.1719-15.665-8.625-17.16-0.91007 0.12033-1.9729-0.54058-3.1836-1.959-1.113-1.9952-1.9555-3.3129-2.5293-3.9512-1.8861-3.2878-3.4374-5.8622-4.5137-7.4277-4.0634-7.0658-7.8631-12.745-11.396-17.016-3.01-6.7422-5.3239-10.007-6.9434-9.793l-1.2734 0.16992 0.96485 2.4023c0.78179 1.2158 1.4501 2.2734 2.2031 3.4492-0.23291-0.1527-0.45168-0.24594-0.64258-0.2207l-0.63671 0.084 15.391 25.152 0.084 0.63672-1.3574-0.46875c-2.4721-5.0479-8.0062-13.379-16.604-24.992-3.3953-4.612-6.2109-6.7684-8.4473-6.4727l0.32813 2.4863c1.4553 0.89747 2.945 2.0946 4.4668 3.5762-0.0218 6e-4 -0.0451-5e-3 -0.0664-2e-3l-0.63672 0.084 4.7539 7.7695c4e-3 0.034 5e-3 0.0633 0.01 0.0976l0.0469-6e-3 8.2148 13.426c0.41378 1.4917 1.022 2.9204 1.8242 4.2852l-0.73242-0.25195c-2.4721-5.0479-8.0062-13.379-16.604-24.992-3.3953-4.612-6.2109-6.7703-8.4473-6.4746l0.32813 2.4883c2.7764 1.7122 5.675 4.4863 8.6934 8.3242-0.28872 0.78358-0.34446 1.8497-0.16602 3.1992l0.57813-0.0762c2.0821-0.2753 4.8971 3.3543 8.4434 10.889l-1.2734 0.16797c0.55571 4.2028 2.5223 7.946 5.8984 11.227-0.28032-2.1207-1.4653-4.7114-3.5566-7.7695l-0.16211-1.2148 0.63672-0.084c0.5946 1.5299 2.7439 5.0326 6.4492 10.506 0.11216 0.84827-0.23518 1.3246-1.0449 1.4316-0.21923-1.658-0.75332-2.4305-1.6016-2.3184l-0.63672 0.084c0.23452 1.7736 2.4695 5.9121 6.7031 12.414l7.1914 16.115c2.6649 9.7695 4.3632 14.605 5.0957 14.508 0.50472 3.8172 1.6151 8.948 3.3301 15.391 1.6416 12.416 5.7782 18.185 12.41 17.309 0.64563-0.30009 1.2428-0.59141 1.8106-0.87695 1.4791 0.81975 3.1511 1.1256 5.0312 0.87695 5.544-2.577 8.2164-4.6173 8.0176-6.1211 3.5837-5.5347 8.997-20.374 16.24-44.518 1.8786-9.2325 3.458-14.933 4.7402-17.104 8.8646-21.376 14.752-39.026 17.658-52.945-0.0509-0.38545-0.28871-0.55012-0.71289-0.49414-0.27531-2.0821 0.24959-4.4855 1.5762-7.2109-0.0509-0.38548-0.28873-0.55012-0.71289-0.49414l-0.41211-3.123-1.2148 0.16015-0.084-0.63671 0.47461-1.2969-1.2715 0.16797c-2.4951 6.6462-4.1473 10.022-4.957 10.129-0.0969-0.73259 0.16951-1.8266 0.80079-3.2832l-0.16211-0.0117c0.20279-0.52496 0.42893-1.06 0.69726-1.6113-0.0509-0.38548-0.28873-0.55012-0.71289-0.49414l-0.41211-3.123-1.2148 0.16015-0.084-0.63671 0.47657-1.2988-1.2734 0.16992c-2.1185 5.643-3.6219 8.9031-4.5254 9.832 0.55633-1.997 1.7404-5.5004 3.6543-10.756-0.0918-0.69405-0.55-1.0441-1.375-1.0527zm-15.082 28.924c1.4397-0.3865 2.9472-5.0184 4.5195-13.896l-0.084-0.63672-1.2734 0.16797c-1.1252 6.622-2.2354 10.987-3.3301 13.094zm229.84-17.889c-0.39298 0.073-0.67475 0.37472-0.8457 0.90625-0.13001 0.76102 0.16808 1.204 0.89453 1.3281l-1.377 4.9434c-0.0591 0.34591 0.46338 0.61362 1.5703 0.80273l-0.76172 4.4629-1.6602-0.2832c-0.0651 0.3806 0.076 0.59915 0.42187 0.6582-0.1241 0.72643-0.71031 1.9612-1.7559 3.7051l0.37696 1.2402c-0.19503 1.1415-0.60764 2.4051-1.2363 3.793-0.0355 0.20755 0.0276 0.98518 0.18945 2.3301-1.391 5.8502-2.1839 9.3448-2.3789 10.486l0.375 1.2402c-0.38036-0.0649-0.60287 0.0921-0.66796 0.47266l-0.0879 0.51953 0.375 1.2383c-0.38047-0.0652-0.60288 0.0921-0.66797 0.47266l-2.1895 12.816-1.0488 2.7051c0.38048 0.065 0.54147 0.26934 0.48242 0.61524-0.0355 0.20756-0.35399 0.91988-0.95313 2.1348-0.0708 0.41507 0.023 1.0171 0.2793 1.8086-0.3806-0.0651-0.6011 0.076-0.66016 0.42187l-2.1973 12.869c-0.26595 1.5566-0.0623 3.692 0.61328 6.4062-0.45821 0.59815-0.75856 1.3124-0.90039 2.1426l-0.94727 5.5508-1.2441 3.8457c0.38049 0.065 0.53952 0.27129 0.48047 0.61718l-0.76562 1.043c-0.0649 0.38048 0.0308 0.96635 0.2871 1.7578l-0.76562 1.0449c-0.1418 0.83018-0.0787 1.6059 0.18945 2.3281-0.48687 0.55764-0.83221 1.4416-1.0391 2.6523l-5.0332-0.85937c-0.0828 0.48429-1.6056 1.5778-4.5664 3.2793 0.48428 0.0827 2.4641 0.79375 5.9375 2.1348 0.0649-0.38071 0.28742-0.53775 0.66797-0.47265l0.99219 0.75586 1.2383-0.375c0.72645 0.12409 1.0245 0.5671 0.89453 1.3281l-3.3203-0.56836-0.0977 0.57227 0.57031 0.0977c0.37862 1.9515 0.96613 2.9949 1.7617 3.1309l1.1777-0.33398c1.6258 0.27774 3.0524 0.89662 4.2773 1.8535 0.16323-0.95545 1.2994-1.5067 3.3828-1.6641 1.2869 0.32688 2.4442 0.87285 3.457 1.6641 0.0727-0.42527 0.35748-0.76409 0.81055-1.0312l-0.20117 1.1816c-1.8938 0.0923-3.438 0.22115-4.6367 0.38672-2.2392-0.30799-4.7012-0.56984-7.4121-0.7832-0.59814-0.45819-1.3124-0.75856-2.1426-0.90039l-0.22656 1.3242c-1.4176-0.15617-2.8934-0.29969-4.4707-0.42383-0.59814-0.45819-1.3124-0.75855-2.1426-0.90039l-0.38081 2.2304c6.1241 0.75598 10.018 0.92597 11.707 0.51367 2.8818 0.24422 4.9546 0.27689 6.2363 0.0996 0.92715-3e-3 1.7994-0.0152 2.6016-0.0371 9.5237 0.20448 14.391-0.29825 14.598-1.5078l-1.6602-0.28321-0.76953 0.0234c0.17708-0.18597 0.29262-0.39658 0.33399-0.63867 0.33418 0.0571 1.3004 0.40132 2.7051 0.94336-9e-3 0.017-0.0363 0.0368-0.0391 0.0527l-0.0977 0.57227c2.6712-6e-3 4.0962-0.52866 4.2734-1.5664 0.38051 0.065 1.4543 0.443 3.2227 1.1367l0.19531-1.1406c4.2109 0.14975 6.3951-0.24181 6.5547-1.1758 9.4642-2.0501 14.482-3.4899 15.051-4.3184 5.6757-1.1309 13.637-3.9727 23.885-8.5234 11.745-8.3178 18.159-15.64 19.24-21.971l0.57617-3.373c0.88597-0.80998 1.3435-1.3018 1.373-1.4746l0.76172-4.4629c2.7361-16.016-2.4783-29.153-15.643-39.412l-10.867-7.0371c-7.7204-3.989-16.328-7.3634-25.824-10.125l-1.1777 0.33203c0.0591-0.34592-1.5573-0.9955-4.8477-1.9492-2.9606 0.24185-8.2291-0.28394-15.805-1.5781-0.62262-0.10638-0.79587-1.2762-0.52148-3.5078l-1.7129-0.29102c-0.62265-0.10642-1.0475 0.19367-1.2754 0.90234-0.12999 0.76101 0.1681 1.204 0.89453 1.3281l-0.59766 2.1387c-1.1711-0.17775-2.3181-0.34671-3.627-0.57031-0.62259-0.10636-0.79783-1.2762-0.52344-3.5078l-1.7109-0.29297c-0.15567-0.0266-0.30065-0.0263-0.43165-2e-3zm-45.977 4.8223-2.9062 0.14258 0.73438 2.875 0.16992 3.4434c-1.1477 0.0563-1.7027 0.47857-1.6641 1.2676l0.0293 0.5918 1.1289-0.0547-0.30859 5.7852c-3.0843 0.15121-4.8875 10.683-5.4082 31.596 0.39432-0.0192 0.60147 0.15119 0.61914 0.50977-0.26442 2.6733-0.35842 4.8158-0.27929 6.4297l0.16992 3.4434 0.043 0.0781c-0.44783-0.50952-0.89905-0.98876-1.3574-1.4043-3.5098-4.861-5.3708-7.2859-5.5859-7.2754-4.9798-6.9819-11.951-15.34-20.912-25.074-7.7108-6.9559-11.661-12.352-11.85-16.189l-0.53711 0.0254c-1.1535 0.66768-1.7177 1.2706-1.6914 1.8086 0.10373 2.116 0.43378 4.7967 0.98829 8.041l4e-3 0.0879c-3.5802-4.0311-5.4761-7.365-5.6035-9.9648l-0.52344 0.0273-0.17188-0.84375-0.59179 0.0293c0.0224 0.45613 0.0177 0.88822-6e-3 1.3027-0.64396 0.47644-0.95527 0.91682-0.93555 1.3203 0.0274 0.5583 0.0721 1.162 0.13086 1.7988-0.048 0.0884-0.0942 0.17911-0.14649 0.26368 6e-3 0.12818 0.11951 0.51346 0.28516 1.0293 0.10628 0.92544 0.23919 1.9146 0.40234 2.9824l-0.48828 0.0234-1.3574-4.5723 0.53711-1.1582-0.65039-1.1543c0.39463-0.0194 0.58408-0.20978 0.56641-0.56836l-0.0293-0.5918-0.65039-1.1543 0.5918-0.0293c-0.49301-1.989-0.74576-3.1271-0.75977-3.4141l-2.3144 0.11524c0.58263 3.8181 0.89489 6.1211 0.93359 6.9102l-1.2129-0.5332-0.5918 0.0273c-6e-3 2.7e-4 -0.0101 2e-3 -0.0156 2e-3l-0.53711-2.6289-0.5918 0.0293c0.095 1.9366-0.22429 3.4992-0.95703 4.6856 0.0103 0.21526 0.24544 0.97561 0.70508 2.2832l0.084 1.7207-0.59179 0.0293-1.3574-4.5703 0.53711-1.1582-0.65039-1.1543c0.39441-0.0192 0.58386-0.20966 0.56641-0.56836l-0.0293-0.5918-0.65039-1.1543 0.5918-0.0293c-0.49302-1.989-0.74576-3.1271-0.75977-3.4141l-2.3125 0.11328c0.58263 3.8181 0.89296 6.1231 0.93164 6.9121l-1.2129-0.53515-0.59179 0.0293c-0.75315 0.0369-1.1012 0.62969-1.0449 1.7773 2.0456 2.1286 3.1086 4.0182 3.1895 5.668l0.0293 0.59179c-1.5422 0.0756-2.2293 1.8344-2.0606 5.2774l0.0293 0.59179 1.1289-0.0547c-0.0158-0.32278 0.1061-1.8754 0.36524-4.6562l0.59179-0.0293c0.0686 1.3987 0.33431 3.1289 0.79492 5.1914-0.55339 1.1776-1.1006 1.7803-1.6387 1.8066l-0.0293-0.5918 0.5371-1.1582-1.7207 0.084c0.0633 1.2911-0.0864 2.2687-0.44922 2.9336 0.0194 0.39447 0.24438 0.95953 0.67578 1.6934-0.078 6.4749-0.0295 11.487 0.14454 15.037l1.8711 38.195c0.081 1.6497 0.75905 3.7377 2.0332 6.2637-0.36109 0.70075-0.5207 1.481-0.47851 2.3418l0.31054 6.3496-0.33593 4.1133c0.35876-0.0177 0.54504 0.15301 0.5625 0.51172l-0.47852 1.2109c0.0194 0.39447 0.22548 0.95978 0.62109 1.6953-0.32523 0.69901-0.466 1.4791-0.42382 2.3398l0.45312 9.252 1.7227-0.084 0.11328 2.3125-0.5332 1.2129 1.7207-0.084 1.8887 2.2266 1.1289-0.0566c0.47368-2.5208 0.75287-4.3599 0.84179-5.5293l0.61133-0.0293 0.0684 1.3867 1.0684-0.0527 0.0449 0.92773-0.5332 1.2109 1.7227-0.084 1.8887 2.2266 1.1289-0.0547c0.0643-0.34193 0.10885-0.61848 0.16602-0.93555l2.2148-0.10937c-0.14533-1.24-0.30737-2.2747-0.48437-3.1465l3.1211-0.15429-0.67969-13.879 1.7207-0.084 0.76367 3.4668 1.7207-0.084-1.2734-2.8496c0.502-0.0246 0.79437-1.7823 0.875-5.2734-0.0194-0.39447-0.24632-0.95758-0.67773-1.6914 0.39452-0.0195 0.58385-0.22662 0.56445-0.62109l-0.64843-1.1016c0.5021-0.0246 0.83908-1.2095 1.0117-3.5547l-1.209-0.48047c0.72572-1.3298 1.0627-2.5146 1.0117-3.5547l-0.31055-6.3476-0.65039-1.1543c0.39464-0.0193 0.58409-0.2078 0.56641-0.56641l-0.17188-3.4961-0.64648-1.1016c0.39465-0.0193 0.5819-0.22662 0.5625-0.62109l-0.36914-7.5313c-0.0423-0.86073-0.27713-1.6212-0.70508-2.2832 0.36111-0.70078 0.52072-1.483 0.47852-2.3438l-0.7793-15.893c14.329 17.21 22.252 28.405 23.762 33.574 2.8941 1.8354 5.4074 5.7753 7.5371 11.818 2.7232 7.8835 5.76 14.494 9.1133 19.83 9e-3 0.17933-0.15081 0.95962-0.47852 2.3418 0.56153 3.3877 0.86386 5.4935 0.9043 6.3184l0.5918-0.0293 1.0996-0.64649 0.20117 4.0879c0.53795-0.0264 1.7306 0.49103 3.5801 1.5508h2e-3c0.75909-0.0372 1.1962-1.8084 1.3476-5.1152 2e-3 0.0317 0.0162 0.12375 0.0176 0.15235l0.5918-0.0293 0.11328-0.0664 0.0449 0.91016 1.0137-0.0508 0.1289 2.6484c0.53797-0.0264 1.7326 0.49103 3.582 1.5508h2e-3c0.32786-0.0161 0.59799-0.34273 0.8125-0.96875l2.1055-0.10352c-0.14234-1.2145-0.30189-2.2305-0.47461-3.0918l3.1133-0.15429-0.16993-3.4961-0.64843-1.1016 0.59179-0.0293-0.79101-4.0586 0.30859-5.7852 0.5918-0.0293 2.4824 3.3301c0.0387 0.789-0.336 1.2015-1.125 1.2402 0.58254 3.8182 0.88294 5.9258 0.90234 6.3203l1.1836-0.0586-0.084-1.7207-0.78906-4.0059c1.5422-0.0756 2.2826-0.70516 2.2246-1.8887l-1.8613-2.7676 0.48047-1.209-1.1289 0.0547c0.26272-2.7092 0.38463-4.2618 0.36523-4.6562l-0.64858-1.0995c0.39452-0.0195 0.5819-0.22662 0.5625-0.62109l-0.64844-1.1543c0.39452-0.0194 0.72479-0.98789 0.99024-2.9062l-0.59766-1.1582c0.23029-2.6357 0.30762-4.7592 0.22852-6.373l-0.14258-2.9062-0.68164-2.8789c0.35862-0.0176 0.50432-0.70747 0.4375-2.0703-0.0511-1.04-0.27212-1.8908-0.66406-2.5547 0.32698-0.66312 0.46973-1.4432 0.42578-2.3398l-0.3125-6.3477-0.67969-2.8789 1.1035-0.59375-0.73438-2.877-0.28516-5.8086 0.45118-2.8809c-0.39451 0.0193-0.61971-0.56257-0.67774-1.7461l0.39453-4.0645c-0.39455 0.0194-0.60169-0.16802-0.62109-0.5625 0.39441-0.0192 0.58191-0.2077 0.56445-0.5664l-0.22656-4.627-0.65039-1.1543 1.8301-22.092-0.65039-1.1543c0.9796-4.2183 1.4485-6.7584 1.4062-7.6191-0.0563-1.1476-0.47855-1.7008-1.2676-1.6621l-0.5918 0.0293c-0.86074 0.0422-1.9116 10.142-3.1523 30.299l-1.1582-0.53711c0.37693-0.37799 0.61188-3.2837 0.70507-8.7168l-1.1309 0.0566c-0.24435-4.9851-0.18786-7.883 0.16797-8.6914l-0.65039-1.1543c0.37694-0.37799 0.63182-2.8892 0.76367-7.5332l-0.5371 0.0273-0.25977 0.13477c0.19055-1.0789 0.28865-1.862 0.26953-2.252-0.0444-0.90542-0.31983-1.4345-0.82031-1.6016 2e-3 -0.0778 0.0199-0.29565 0.0176-0.3418l-1.1836 0.0586-0.0469 0.40234c-0.53477 0.83737-1.1413 5.4392-1.8145 13.602l-0.90039 0.0449-0.0273-0.53907c0.58615-3.444 1.0728-9.2726 1.4609-17.488l-0.11328-2.3144-2.9043 0.14258 0.73437 2.877 0.16797 3.4414c-1.1476 0.0563-1.7008 0.4805-1.6621 1.2695l0.0293 0.58984 1.1289-0.0547-0.31055 5.7852c-0.0832 4e-3 -0.16476 0.0199-0.24609 0.0391 0.0704-1.0695 0.13216-2.2858 0.17578-3.8223l-0.53711 0.0273-1.1562 0.5957c0.26269-2.7092 0.38268-4.2618 0.36328-4.6562l-1.1836 0.0586-1.6328 13.992-1.1289 0.0566-0.0254-0.53907c0.58612-3.444 1.0728-9.2745 1.4609-17.49zm48.734 1.8789c0.72645 0.1241 1.0245 0.56711 0.89453 1.3281l-0.4707 2.75c-0.13005 0.76093-0.55678 1.0792-1.2832 0.95508l-0.0938-2.8984 0.1875-1.0898zm2.2305 0.38086 0.54687 0.0137-0.0234 0.082c-0.0591 0.34592 0.46533 0.61362 1.5723 0.80273l-0.52734 3.084c-0.0877-0.56756-0.7681-0.96123-2.0469-1.1797zm7.4512 0.15235c1.5137 0.2586 2.9702 0.53331 4.4004 0.8164-0.26992 1.4065-0.95837 2.02-2.0703 1.8301l-0.11719 0.6836c-0.55892 0.0146-1.1139 0.0275-1.5039 0.0293-0.23055-0.23586-0.64534-0.41601-1.1875-0.56054zm-3.2852 0.0703 0.86719 0.63672c-0.19245 1.1265-0.64039 1.7682-1.3418 1.9297l-0.0332-1.0352 0.18555-1.0898zm9.9082 1.1973c6.6005 1.4088 12.259 3.0946 16.967 5.0586 3.2588 1.3735 6.0132 2.5894 8.3555 3.6758l-0.41992-0.0723c-1.7438-1.0456-6.6017-2.8349-14.57-5.3711-0.79137 0.25649-1.3772 0.3522-1.7578 0.28711-0.93395-0.15957-2.3874-0.60481-4.3633-1.334l-1.2402 0.37695 0.0977-0.57227c-1.933 0.0614-3.0721 0.063-3.418 4e-3zm22.945 4.7188c0.28504 0.1142 0.58486 0.22369 0.86328 0.33984 11.79 4.969 17.58 8.0588 17.373 9.2695l-0.0977 0.56836c-1.2541-0.82701-2.51-1.6067-3.7656-2.3516l-6.0605-3.9238c-2.6625-1.3757-5.4388-2.6726-8.3125-3.9023zm-28.977 4.0586 2.6562 1.5586c-0.0143 0.65674 0.011 1.3593 0.0762 2.1074-0.38037-0.0649-0.60483 0.0921-0.66992 0.47265 0.26823 0.72224 0.33324 1.4979 0.1914 2.3281l-1.3398 7.8359 0.10156 2.8477-1.4746-1.373c0.065-0.38048 0.27127-0.54146 0.61719-0.48242 0.15956-0.93397 0.23946-2.4508 0.24219-4.5508l0.70507-1.002c-0.22181-0.78553-0.29747-1.3857-0.22656-1.8008l-0.57031-0.0977-1.2383 0.37695c0.35974-2.1098 0.40699-3.4368 0.14453-3.9805l0.51953 0.0879c0.0851-2.1226 0.17504-3.4398 0.26563-4.3281zm-14.602 0.23828c0.22219-0.0109 0.47635 8e-3 0.76172 0.0566l-0.38086 2.2305c-0.13001 0.76102-0.57689 1.0773-1.3379 0.94727l-0.57031-0.0996c0.065-0.38049 0.28744-0.53777 0.66797-0.47266 0.065-0.38049-0.0308-0.96635-0.28711-1.7578 0.0978-0.57001 0.47992-0.8715 1.1465-0.9043zm19.76 1.0059 2.5527 0.43555c1.1811 0.20176 2.2025 0.42015 3.1035 0.65234l3.8301 2.2461 0.38086-0.12305c0.1398 0.25434 0.18558 0.52029 0.13867 0.79492-0.4151-0.0709-0.95188-0.35866-1.6133-0.86328-0.38048-0.0649-0.96635 0.0308-1.7578 0.28711-2.2384-1.2865-4.3945-2.1934-6.4688-2.7344 6e-3 -0.0382 0.0131-0.0872 0.0195-0.125zm-110.56 0.50391c1.2749 1.8069 4.1531 5.1519 8.6348 10.037 5.2272 5.4239 7.8713 8.3864 7.9316 8.8867l-0.53711 0.0273c-4.6934-4.8031-7.3266-7.1904-7.9004-7.1621l0.0449 0.93945c-1.339-1.4953-2.7102-3.0135-4.1524-4.5801-1.1167-1.0074-2.1309-1.9721-3.0898-2.9141-0.92474-1.7068-1.4369-3.4424-1.5234-5.207zm110.55 1.2773 2.6465 1.5527 1.1875-0.38477 9.6856 3.9512 1.1875-0.38476-0.19532 1.1426c9.7588 3.5184 17.986 9.1239 24.682 16.818 0.3806 0.0651 0.60111-0.074 0.66016-0.41992l0.57031 0.0977c-0.0591 0.34592-0.2796 0.48502-0.66015 0.41992 2.6631 4.8339 4.0033 9.2821 4.0215 13.344l-0.85937 5.0332 0.38476 1.1875c-3.103 6.9106-6.4784 12.082-10.127 15.518-8.7573 4.1645-15.088 7.676-18.994 10.533-9.5579 2.3901-14.402 3.8587-14.531 4.4062l-13.641 2.4727c0.17935-0.9049 0.65115-2.7324 1.4902-5.7168l-0.32422-1.2305c0.48426 0.0828 1.1031-1.3419 1.8535-4.2754l-0.99218-0.75781c0.93327-1.0866 1.4849-2.1316 1.6562-3.1348l1.8086-10.584-0.37695-1.2402c0.48425 0.0827 1.3095-2.4464 2.4726-7.5879 0.0708-0.41507-0.023-1.0171-0.27929-1.8086l1.1387-3.2246 2.0996-12.297 1.041-2.6524c-0.38049-0.065-0.47235-0.66902-0.27734-1.8105l0.38086-2.2305 1.041-2.6524c-0.3805-0.065-0.57001-1.2549-0.5664-3.5684l0.57226 0.0976c0.41414-4.4168 0.82829-7.9186 1.2441-10.613zm-67.436 0.31641c-0.16771 4.6458-0.64652 6.9887-1.4356 7.0273l-0.53711 0.0273c-0.0984-2.0084 0.36155-4.351 1.3809-7.0254zm-250.7 0.125c0.55729 0.64473 1.1178 1.3138 1.6836 2.0332-0.0901 0.2445-0.15071 0.52656-0.19532 0.82617-0.53543-1.1192-1.0326-2.0777-1.4883-2.8594zm136.49 0.19336c-10.989 0.0316-20.785 2.0151-29.389 5.9492-3.5934 2.1517-7.1186 4.7568-10.574 7.8164-16.096 18.086-20.06 36.058-11.895 53.916 3.7418 8.1833 11.096 15.015 22.062 20.496 7.4309 0.57843 11.444 1.216 12.041 1.9141 4.3057 0.30013 8.1438 0.37876 11.525 0.23828 8.8946 0.2988 15.473-0.50769 19.693-2.4375-0.17485-0.3824-0.0535-0.66898 0.36719-0.86132 0.24479 0.53536 1.8632 0.28003 4.8535-0.76368 15.716-7.1864 25.775-17.24 30.176-30.164l-1.834 0.83789c1.5926-5.213 2.292-8.0286 2.0996-8.4492l-1.1289-2.4668-0.63086 0.28906-4.4336-3.1758-0.63086 0.28906c0.69941 1.5296 0.911 4.6693 0.63281 9.4199-0.42065 0.19234-0.72759 0.0788-0.91992-0.34179-0.84125 0.38466-0.98139 1.1884-0.42187 2.4121l-0.9336 0.42773c1.2268-4.1227 1.7952-6.4814 1.625-6.8535l-1.127-2.4668-0.63086 0.28906-4.4336-3.1758-0.63086 0.28906c0.69941 1.5296 0.90905 4.6692 0.63086 9.4199-0.42063 0.19233-0.72758 0.0789-0.91992-0.34179-0.84128 0.38467-0.98141 1.1884-0.42188 2.4121l-1.2051 0.55078 0.88867-3.5742c1.1739-1.0532 1.5254-2.3432 1.0195-3.8789-0.42064 0.19234-1.1198 0.28084-2.0976 0.26563l-0.38477 2.3457c-0.18447-0.14432-0.34527-0.3535-0.47656-0.64063l-1.2051 0.55079c-4.1429 7.7413-8.4265 13.388-12.852 16.959-0.1232-0.0574-0.22639-0.15921-0.30273-0.32617-1.5296 0.6994-2.4754 1.363-2.8359 1.9902-0.72657 0.33222-1.9225 0.39409-3.5898 0.18555-0.0207 0.0291-0.0471 0.0534-0.0684 0.082-0.0485-0.0494-0.0887-0.0822-0.13867-0.13476 3.5181-1.6086 5.1117-3.585 4.7793-5.9297l-0.63281 0.28906c-1.2378 2.0455-2.3902 3.3132-3.4609 3.8027-0.42063 0.19234-0.71968 0.0973-0.89453-0.28515-1.5296 0.69941-2.4735 1.363-2.834 1.9902-0.72654 0.33221-1.9245 0.39409-3.5918 0.18555-0.53424 0.75285-1.26 1.3382-2.1777 1.7578-2.1904 1.0016-5.2142 1.7183-9.0469 2.1582-6.8261-1.3087-12.211-3.6154-16.121-6.9414l-0.55078-1.2031 2.4668-1.1289 3.9336-1.1055c0.51346-0.69711 1.8594-1.5424 4.0391-2.5391 0.55951 1.2237 1.4705 1.5458 2.7324 0.96875 0.57245-0.77033 1.088-1.2589 1.5469-1.4688-0.19234-0.42065-0.49732-0.5361-0.91797-0.34375l0.0801-1.4922c1.9502-0.89174 6.5763-3.2617 13.879-7.1094l0.57617 1.2617 3.0977-1.416c14.169-8.1434 21.001-12.77 20.494-13.879 4.8102-5.7596 5.6316-12.1 2.4668-19.021l-1.6777-3.6699c-3.6194-7.9156-11.235-12.641-22.848-14.174-1.8678 5e-3 -3.6874 0.0889-5.4863 0.20703-0.44908-0.071-0.89376-0.14608-1.3555-0.20703zm121 0.52929c-0.0271 0.55564-0.0584 1.0887-0.0957 1.5684l-0.23242-0.41406c0.12416-0.12451 0.23055-0.5669 0.32812-1.1543zm-249.07 2.334c0.23887 0.37567 0.50855 0.7949 0.74414 1.166l-0.1875 0.0254c-0.19207-0.42433-0.37372-0.80582-0.55664-1.1914zm194.79 0.66797c0.7978 0.14064 1.6158 1.0725 2.4551 2.793l-0.5918 0.0293c-0.7978-0.14064-1.6158-1.0725-2.4551-2.793zm241.77 3.8379c-10.989 0.0316-20.785 2.0151-29.389 5.9492-3.5934 2.1516-7.1186 4.7568-10.574 7.8164-16.096 18.086-20.062 36.06-11.896 53.918 3.7418 8.1833 11.097 15.014 22.064 20.494 7.4309 0.57843 11.444 1.2179 12.041 1.916 4.2954 0.29941 8.1262 0.3754 11.502 0.23632 8.9069 0.30107 15.493-0.50594 19.717-2.4375-0.17485-0.38238-0.0534-0.66899 0.36719-0.86132 0.24478 0.53534 1.8631 0.28196 4.8535-0.76172 15.717-7.1864 25.775-17.242 30.176-30.166l-1.8359 0.83985c1.5926-5.213 2.2939-8.0306 2.1016-8.4512l-1.1289-2.4668-0.63086 0.28906-4.4336-3.1738-0.63086 0.28906c0.69941 1.5296 0.91102 4.6692 0.63281 9.4199-0.42063 0.19233-0.72759 0.0788-0.91992-0.3418-0.84128 0.38467-0.98139 1.1884-0.42188 2.4121l-0.93359 0.42773c1.2269-4.1232 1.7952-6.4833 1.625-6.8555l-1.127-2.4668-0.63086 0.28906-4.4336-3.1738-0.63086 0.28906c0.6994 1.5296 0.90904 4.6692 0.63086 9.4199-0.42065 0.19234-0.72758 0.0788-0.91992-0.3418-0.84127 0.38467-0.9814 1.1884-0.42187 2.4121l-1.2051 0.55078 0.88867-3.5762c1.1736-1.0531 1.5254-2.3413 1.0195-3.877-0.42062 0.19234-1.1198 0.28083-2.0976 0.26563l-0.38477 2.3438c-0.18447-0.14432-0.34528-0.3535-0.47656-0.64062l-1.2051 0.55078c-4.143 7.7415-8.4264 13.39-12.852 16.961-0.1232-0.0574-0.22639-0.16116-0.30274-0.32812-1.5296 0.69941-2.4754 1.363-2.8359 1.9902-0.72655 0.33221-1.9225 0.39409-3.5898 0.18555-0.021 0.0295-0.0468 0.055-0.0684 0.084-0.0485-0.0494-0.0887-0.0821-0.13867-0.13476 3.5181-1.6086 5.1097-3.585 4.7773-5.9297l-0.63086 0.28711c-1.2377 2.0455-2.3922 3.3132-3.4629 3.8027-0.42062 0.19234-0.71773 0.0972-0.89257-0.28515-1.5296 0.69941-2.4735 1.3631-2.834 1.9902-0.72656 0.33223-1.9245 0.39409-3.5918 0.18555-0.5342 0.75286-1.26 1.3401-2.1777 1.7598-2.1908 1.0017-5.2152 1.7164-9.0488 2.1562-6.8252-1.3087-12.209-3.6137-16.119-6.9395l-0.55078-1.2051 2.4668-1.127 3.9336-1.1055c0.51347-0.69714 1.8594-1.5444 4.0391-2.541 0.55953 1.2237 1.4705 1.5477 2.7324 0.9707 0.57244-0.77035 1.088-1.2609 1.5469-1.4707-0.19233-0.42063-0.49929-0.53413-0.91992-0.3418l0.082-1.4941c1.9502-0.89174 6.5763-3.2616 13.879-7.1094l0.57617 1.2617 3.0976-1.416c14.169-8.1434 21.001-12.768 20.494-13.877 4.8102-5.7595 5.6316-12.1 2.4668-19.021l-1.6777-3.6719c-3.6194-7.9156-11.235-12.641-22.848-14.174-1.8689 5e-3 -3.6903 0.0888-5.4902 0.20703-0.44779-0.0708-0.89122-0.14626-1.3516-0.20703zm-308.49 11.943c2.6288 0.35467 4.7118 1.1676 6.2129 2.4668l1.6777 3.6699c-7.1507 4.8879-11.402 8.0803-12.752 9.5762l-0.28711-0.63086-12.811 9.6016c-0.9189-0.0884-1.8362 0.0784-2.7539 0.49805l-5.5059 2.5176-2.8106 2.0469 0.83985 1.8359c0.91776-0.41965 1.837-0.58646 2.7559-0.49805 25.541-14.822 37.872-23.19 36.998-25.102l-0.86523-1.8926c-0.67082-1.4671-1.6978-2.788-3.0664-3.9688 0.72457 0.13007 1.4121 0.29143 2.043 0.5 0.63459 0.70119 1.285 1.4591 1.9668 2.3438 0.37102 2.3097 0.64942 3.8601 0.8457 4.7305-5.7219 3.9701-9.3146 6.6958-10.508 8.0176l-0.28906-0.63086-12.809 9.6016c-0.91889-0.0884-1.8362 0.0784-2.7539 0.49805l-5.5078 2.5176-2.8086 2.0469 0.83984 1.8359c0.91775-0.41964 1.835-0.58645 2.7539-0.49805 5.9416-3.4482 11.095-6.5103 15.607-9.2598-3.8378 2.6318-7.4559 4.9546-10.824 6.9277l-2.4648 1.127c-0.84125 0.38467-0.98336 1.1884-0.42383 2.4121l1.2617-0.57617 0.28906 0.63086-3.4394 2.3359-3.3867 0.78515-2.752 2.0215 0.26367 0.57226c0.91774-0.41964 1.835-0.58452 2.7539-0.49609 3.8718-1.9914 7.7146-4.1176 11.531-6.3633 0.0294 0.31719 0.13166 0.67727 0.32031 1.0898l1.2617-0.57617 0.0801 0.17383c-1.3671 0.91375-3.0748 2.066-4.6445 3.1211l-1.9726 0.45703-2.752 2.0215 0.17188 0.37695-3.418 0.96094c-0.45887 0.20982-1.0027 0.68985-1.6309 1.4394-0.68133-0.13203-2.1301 0.30495-4.3047 1.2812-0.26434-0.29998-0.49611-0.6537-0.6875-1.0723-2.2798-6.4014-2.8648-9.8562-1.7559-10.363-0.70294-4.6719-0.19345-7.4007 1.5274-8.1875 0.51415-5.0435 4.9552-11.052 13.326-18.023l0.28906 0.63281c0.45887-0.20982 0.9928-0.71022 1.6035-1.498 0.84125-0.38466 4.6113-1.3451 11.307-2.8809 0.50443-0.067 0.9744-0.1055 1.457-0.15429zm308.5 7.3711c2.6251 0.35525 4.7035 1.1669 6.2031 2.4648l1.6797 3.6719c-7.1507 4.8878-11.402 8.0803-12.752 9.5762l-0.28906-0.63086-12.809 9.6016c-0.91888-0.0884-1.8361 0.0765-2.7539 0.4961l-5.5078 2.5176-2.8086 2.0469 0.83984 1.8359c0.91775-0.41964 1.835-0.58453 2.7539-0.4961 25.541-14.822 37.874-23.19 37-25.102l-0.86523-1.8926c-0.67117-1.4678-1.6987-2.7895-3.0684-3.9707 0.72441 0.12996 1.4122 0.28965 2.043 0.49805 0.63546 0.70197 1.2859 1.4617 1.9688 2.3476 0.37102 2.3097 0.64942 3.8601 0.8457 4.7305-5.7219 3.9701-9.3147 6.6958-10.508 8.0176l-0.28907-0.63086-12.809 9.6016c-0.9189-0.0884-1.8381 0.0765-2.7559 0.4961l-5.5059 2.5176-2.8086 2.0469 0.83984 1.8359c0.91777-0.41965 1.835-0.58451 2.7539-0.4961 5.9376-3.4459 11.088-6.5058 15.598-9.2539-3.8342 2.629-7.449 4.9485-10.814 6.9199l-2.4668 1.1289c-0.84127 0.38467-0.98139 1.1884-0.42187 2.4121l1.2617-0.57813 0.28906 0.63086-3.4394 2.3359-3.3867 0.78515-2.752 2.0215 0.26368 0.57422c0.91774-0.41964 1.835-0.58452 2.7539-0.4961 3.8716-1.9913 7.7147-4.1177 11.531-6.3633 0.0295 0.31707 0.13178 0.67752 0.32032 1.0898l1.2617-0.57813 0.0801 0.17383c-1.3672 0.91388-3.0765 2.0658-4.6465 3.1211l-1.9707 0.45703-2.752 2.0215 0.17188 0.3789-3.418 0.96094c-0.45887 0.20982-1.0027 0.68793-1.6309 1.4375-0.68136-0.132-2.13 0.30687-4.3047 1.2832-0.26434-0.29998-0.49611-0.65371-0.6875-1.0723-2.2798-6.4014-2.8648-9.8562-1.7559-10.363-0.70295-4.6719-0.19538-7.4007 1.5254-8.1875 0.51417-5.0435 4.9572-11.052 13.328-18.023l0.28906 0.63086c0.45887-0.20982 0.99283-0.70826 1.6035-1.4961 0.84127-0.38468 4.6093-1.3452 11.305-2.8809 0.50738-0.0674 0.98148-0.10532 1.4668-0.1543zm-289.12 13.773c0.19233 0.42062 0.68916 0.44726 1.4922 0.0801l0.57812 1.2617-1.4941-0.0801-1.2617 0.57812-1.2852 2.043c-3.9004 1.7835-7.0917 3.498-9.5762 5.1426l-1.2617 0.57617-0.28907-0.63086c1.759-0.80431 6.1251-3.7944 13.098-8.9707zm-6.7539 0.10547c0.0421 0.0544 0.0824 0.11093 0.14063 0.14453l0.20898 0.45898c-0.74914 0.34255-1.0646 0.69923-0.99414 1.0703l-0.1289 0.0586-0.15235 0.24414c-1.188 0.63351-4.9548 3.0668-10.947 7.0527l-1.0234 0.4668-0.28906-0.63086c1.7097-0.78176 5.9316-3.6682 12.566-8.5801zm315.25 7.2637c0.19233 0.42063 0.68915 0.44922 1.4922 0.082l0.57617 1.2617-1.4922-0.0801-1.2617 0.57617-1.2852 2.043c-3.9004 1.7835-7.0917 3.498-9.5762 5.1426l-1.2637 0.57812-0.28711-0.63086c1.759-0.80432 6.1251-3.7964 13.098-8.9726zm-6.7539 0.10547c0.0417 0.0539 0.0811 0.11104 0.13867 0.14453l0.21094 0.45898c-0.74917 0.34256-1.0646 0.7012-0.99414 1.0723l-0.12891 0.0586-0.15429 0.24414c-1.1893 0.63451-4.9543 3.0672-10.943 7.0508l-1.0254 0.46875-0.28907-0.63086c1.7096-0.78169 5.9305-3.6708 12.564-8.582zm-292.5 0.084c-0.42063 0.19233-1.1198 0.28084-2.0977 0.26563l-0.78711 4.7988c2.6386-1.2065 3.5995-2.8946 2.8848-5.0644zm-30.723 2.8828 0.20899 0.45508c-2.5064 1.6758-5.2774 3.5354-8.4551 5.6797l-3.9336 1.1055c-0.41831 0.19127-0.91559 0.63749-1.4746 1.2773-0.0939 9e-3 -0.19539 0.034-0.30469 0.084l0.0801-1.4922c1.9502-0.89174 6.5763-3.2616 13.879-7.1094zm27.494 3.1016c-4.9851 5.3772-7.7128 8.6133-8.1836 9.707l1.8359-0.83985c0.95599-0.43712 3.255-2.9909 6.8984-7.6621zm311.72 1.3867c-0.42063 0.19234-1.1198 0.28085-2.0977 0.26563l-0.78711 4.7988c2.6385-1.2065 3.5995-2.8946 2.8848-5.0645zm-30.723 2.8809 0.20898 0.45704c-2.5062 1.6757-5.2777 3.5356-8.4551 5.6797l-3.9336 1.1055c-0.41856 0.19139-0.91712 0.6349-1.4766 1.2754-0.0939 9e-3 -0.19346 0.036-0.30273 0.0859l0.0801-1.4941c1.9502-0.89174 6.5763-3.2617 13.879-7.1094zm-325.81 2.0762c0.0236 0.0516 0.0513 0.0922 0.0762 0.14062-0.36239 0.15119-0.71752 0.29733-1.1309 0.48633-0.31608 0.14453-0.61079 0.25302-0.9082 0.36719 0.56261-0.31513 1.1917-0.64152 1.9629-0.99414zm353.3 1.0254c-4.9851 5.3772-7.7128 8.6133-8.1836 9.707l1.8359-0.83985c0.95599-0.43712 3.255-2.9909 6.8984-7.6621zm-44.812 6.3438c0.0235 0.0515 0.0514 0.0924 0.0762 0.14062-0.36259 0.15126-0.71922 0.29917-1.1328 0.48828-0.31383 0.1435-0.60498 0.24972-0.90039 0.36328 0.56137-0.31416 1.1885-0.64079 1.957-0.99218zm-117.12 18.326c0.0401 0.0194 0.0563 0.0249 0.0977 0.0449l-0.0977 0.57031c-2.3448 0.58844-4.0263 1.0723-5.1387 1.4648l-0.2168-0.7168 0.18555-1.0898c1.9378-0.0178 3.6391-0.11544 5.1699-0.27344zm-10.26 0.92578c0.9361-9e-3 2.0172 0.0406 3.2442 0.15234l-0.29102 1.707-1.6152-0.27539-2.8984 0.0918-0.37696-1.2383 0.0508-0.29687c0.5503-0.0795 1.1622-0.13352 1.8867-0.14063zm11.162 0.9668c0.45504 0.0162 0.87548 0.0219 1.2832 0.0254-0.59155 0.19395-1.0479 0.36565-1.375 0.51758zm-97.865 1.584c-0.64543 0.0316-1.0034 0.42712-1.0742 1.1856l0.22656 4.627c0.0387 0.78901 0.43633 1.1639 1.1895 1.127zm-0.78906 6.9961c0.0404 0.82488-0.0518 2.9505-0.2793 6.377l2.3125-0.11328c-0.49436-4.2179-1.1725-6.3058-2.0332-6.2637zm-5.7812 0.82227 0.0254 0.53516c-0.0675-0.19095-0.13409-0.37722-0.20508-0.52735zm65.645 2.6055c0.0229 0.46622-0.0794 2.3946-0.3086 5.7852l0.0293 0.59179 2.3125-0.11328c-0.49435-4.2179-1.1724-6.3059-2.0332-6.2637zm-5.7246 0.87305 0.0312 0.64843c-0.0792-0.24252-0.15993-0.45423-0.24414-0.63867z" fill="#fff" stroke-width="3.2292"/>
		</g>
		<path d="m165.67 267.65s23.863-3.4542 23.514 5.9787c-0.45571 12.32-17.804-0.79018-23.514-5.9787z" fill="#0f7"/>
		<path d="m207.38 247.16s-29.273 17.715-19.722 29.79c9.0804 11.48 9.7577-20.694 19.722-29.79z" fill="#0f7"/>
		<path d="m216.23 268.17s-21.602-2.9488-23.966 4.8069c-2.3644 7.7558 6.3243 10.924 23.966-4.8069z" fill="#00ea6d"/>
		<path d="m171.26 254.98s27.708 6.5674 21.337 20.584c-6.9806 15.356-10.888-15.041-21.337-20.584z" fill="#d0ff3d"/>
	</g>
</svg>
